<?xml version="1.0" encoding="UTF-8"?><svg id="Layer_1" xmlns="http://www.w3.org/2000/svg" xmlns:xlink="http://www.w3.org/1999/xlink" viewBox="0 0 2238.9 491.9"><defs><style>.cls-1{fill:url(#linear-gradient);}.cls-1,.cls-2,.cls-3,.cls-4,.cls-5,.cls-6,.cls-7{stroke-width:0px;}.cls-2{fill:url(#linear-gradient-4);}.cls-3{fill:url(#linear-gradient-2);}.cls-4{fill:url(#linear-gradient-3);}.cls-5{fill:url(#linear-gradient-5);}.cls-6{fill:#343744;}.cls-7{fill:#fff;}</style><linearGradient id="linear-gradient" x1="1357.73" y1="235.04" x2="1275.08" y2="134.95" gradientUnits="userSpaceOnUse"><stop offset=".2" stop-color="#10a09f"/><stop offset="1" stop-color="#a8ff83"/></linearGradient><linearGradient id="linear-gradient-2" x1="1356.12" y1="274.96" x2="1417.92" y2="179.03" gradientUnits="userSpaceOnUse"><stop offset=".2" stop-color="#ff4c6d"/><stop offset="1" stop-color="#ffcf55"/></linearGradient><linearGradient id="linear-gradient-3" x1="1321.69" y1="282.26" x2="1407.37" y2="302.73" gradientUnits="userSpaceOnUse"><stop offset=".2" stop-color="#a8356b"/><stop offset="1" stop-color="#ff5f6d"/></linearGradient><linearGradient id="linear-gradient-4" x1="1298.96" y1="257.49" x2="1308.06" y2="355.68" gradientUnits="userSpaceOnUse"><stop offset=".2" stop-color="#4f60c5"/><stop offset="1" stop-color="#1aa7ec"/></linearGradient><linearGradient id="linear-gradient-5" x1="1318.39" y1="227.79" x2="1219.81" y2="266.84" gradientUnits="userSpaceOnUse"><stop offset=".2" stop-color="#843d9d"/><stop offset="1" stop-color="#f55abb"/></linearGradient></defs><path class="cls-7" d="m1119.45,483.01c-320.09,0-640.18-2.35-958.03-7.05-63.52-1.03-129.14-53.4-140.43-112.07-14.83-78.28-14.83-157.64,0-235.89C32.29,69.33,97.9,16.96,161.41,15.92c635.71-9.39,1280.36-9.39,1916.06,0,63.52,1.04,129.13,53.4,140.43,112.06,14.83,78.28,14.83,157.64,0,235.89-11.31,58.69-76.92,111.06-140.43,112.09h-.01c-317.85,4.69-637.94,7.05-958.03,7.05Zm0-459.15c-320.05,0-639.99,2.35-957.81,7.05-26.25.43-55.2,11.43-79.41,30.19-25.09,19.44-41.62,44.2-46.53,69.72-14.47,76.39-14.47,153.87,0,230.27,4.91,25.5,21.43,50.26,46.52,69.7,24.21,18.76,53.16,29.76,79.42,30.19,635.54,9.39,1280.04,9.4,1915.6,0,56.02-.91,116.04-48.54,125.94-99.91,14.47-76.39,14.47-153.87,0-230.27-4.91-25.49-21.44-50.25-46.52-69.69-24.21-18.76-53.16-29.76-79.42-30.19-317.73-4.69-637.81-7.05-957.79-7.05Z"/><path class="cls-7" d="m2078.83,468.46c-341.89,5.06-683.78,7.41-1025.66,7.06-3.3-153.05-3.3-306.1,0-459.15,341.89-.35,683.78,2.01,1025.66,7.06,56.41.91,120.39,47.76,131.45,104.51,15.09,78.67,15.09,157.33,0,236-11.05,56.75-75.05,103.59-131.45,104.51Z"/><path class="cls-7" d="m1118.41,480.68c-21.79,0-43.5-.01-65.26-.03h-5.01s-.11-5.02-.11-5.02c-3.29-152.41-3.29-306.96,0-459.37l.11-5.01h5.01c340.32-.36,685.43,2.02,1025.75,7.06,61.58.99,125.32,51.77,136.4,108.66,15.14,78.95,15.14,159,0,237.94-11.08,56.9-74.82,107.67-136.4,108.67h0c-318.5,4.72-641.32,7.1-960.49,7.1Zm-60.23-10.28c338.73.29,682.05-2.06,1020.56-7.07h0c56.15-.91,116.44-48.75,126.5-100.36,14.89-77.64,14.89-156.4,0-234.05-10.05-51.61-70.35-99.44-126.49-100.35-338.57-5.01-681.92-7.35-1020.56-7.07-3.14,148.96-3.14,299.94,0,448.9Z"/><path class="cls-1" d="m1269.76,163.58c-4.73-14.57,3.24-30.21,17.81-34.95,14.57-4.73,30.21,3.24,34.95,17.81,6.39,19.67,2.8,98.36,2.8,98.36,0,0-48.96-60.92-55.55-81.22Z"/><path class="cls-3" d="m1393.71,178.7c11.23-8.16,26.95-5.67,35.11,5.56,8.16,11.23,5.67,26.95-5.56,35.11-15.16,11.02-84,29.96-84,29.96,0,0,38.8-59.27,54.45-70.63Z"/><path class="cls-4" d="m1402.55,286.57c8.46,6.15,10.34,17.99,4.19,26.45-6.15,8.46-17.99,10.34-26.45,4.19-11.43-8.3-41.03-53.22-41.03-53.22,0,0,51.5,14.01,63.29,22.57Z"/><path class="cls-2" d="m1323.15,344.77c-3.67,11.29-15.8,17.47-27.09,13.8-11.29-3.67-17.47-15.8-13.8-27.09,4.95-15.24,43.06-62.95,43.06-62.95,0,0,2.94,60.51-2.17,76.24Z"/><path class="cls-5" d="m1237.48,279.94c-12.85,0-23.27-10.42-23.27-23.27,0-12.85,10.42-23.27,23.27-23.27,17.35,0,79.22,23.27,79.22,23.27,0,0-61.31,23.27-79.22,23.27Z"/><path class="cls-6" d="m1942.17,213.19c0-9.85,9.64-16.68,20.29-16.68,13,0,22.4,9.94,22.5,22.31l27.42-6.86c-2.68-22.15-22.95-38.16-49.32-38.16-28.13,0-48.62,16.48-48.62,38.98,0,46.62,76.15,36.77,76.15,66.51,0,10.85-10.45,18.89-24.71,18.89-16.88,0-29.06-12.07-31.05-30.07l-27.29,6.82c4.72,25.6,27.18,45.96,58.34,45.96s52.44-18.69,52.44-43.6c0-47.62-76.15-36.37-76.15-64.09Z"/><path class="cls-6" d="m1516.82,213.19c0-9.85,9.64-16.68,20.29-16.68,13,0,22.4,9.94,22.5,22.31l27.42-6.86c-2.68-22.15-22.95-38.16-49.32-38.16-28.13,0-48.62,16.48-48.62,38.98,0,46.62,76.15,36.77,76.15,66.51,0,10.85-10.45,18.89-24.71,18.89-16.88,0-29.06-12.07-31.05-30.07l-27.29,6.82c4.72,25.6,27.18,45.96,58.34,45.96s52.44-18.69,52.44-43.6c0-47.62-76.15-36.37-76.15-64.09Z"/><path class="cls-6" d="m1677.44,173.81c-41.59,0-70.73,30.34-70.73,73.54s29.13,73.54,70.73,73.54,70.73-30.34,70.73-73.54-29.13-73.54-70.73-73.54Zm0,124.37c-25.52,0-43-20.49-43-50.83s17.48-50.83,43-50.83,43,20.5,43,50.83-17.48,50.83-43,50.83Zm152.07,0c-25.42,0-40.39-18.92-40.39-50.28s15.53-51.4,40.39-51.4c18.68,0,31.97,11.52,35.52,30.91l26.33-6.58c-6.52-28.22-30.42-47.03-61.9-47.03-40.09,0-67.46,30.13-67.46,74.09s26.82,72.99,67.46,72.99c44.63,0,57.86-29.82,61.73-45.96l-26.73-6.68c-1.45,10.96-8.02,29.94-34.96,29.94Z"/><path class="cls-7" d="m161.78,298.6v-105.09h42.28c10.28,0,18.41,2.55,24.37,7.64,5.97,5.1,8.95,12.74,8.95,22.93s-3.03,17.38-9.09,22.93c-6.06,5.56-14.14,8.33-24.24,8.33h-26.03v43.25h-16.25Zm40.08-57.43c6.24,0,11.04-1.42,14.39-4.27,3.35-2.85,5.03-6.98,5.03-12.4s-1.67-9.27-5.03-12.12c-3.35-2.84-8.15-4.27-14.39-4.27h-23.83v33.05h23.83Z"/><path class="cls-7" d="m261.11,295.02c-5.83-3.4-10.38-8.15-13.64-14.25-3.26-6.11-4.89-13.06-4.89-20.87s1.63-14.41,4.89-20.38c3.26-5.97,7.8-10.65,13.64-14.05,5.83-3.4,12.46-5.09,19.9-5.09s14.07,1.7,19.9,5.09c5.83,3.4,10.38,8.08,13.64,14.05,3.26,5.97,4.89,12.76,4.89,20.38s-1.61,14.62-4.82,20.73c-3.21,6.11-7.74,10.88-13.57,14.32-5.83,3.44-12.51,5.17-20.04,5.17s-14.07-1.7-19.9-5.1Zm31.74-11.57c3.49-2.29,6.22-5.51,8.2-9.64,1.97-4.13,2.96-8.77,2.96-13.91s-.99-9.43-2.96-13.43c-1.98-3.99-4.71-7.14-8.2-9.43-3.49-2.29-7.43-3.44-11.84-3.44s-8.36,1.13-11.85,3.38c-3.49,2.25-6.22,5.37-8.2,9.37-1.98,3.99-2.96,8.52-2.96,13.56s.99,9.89,2.96,13.98c1.97,4.09,4.71,7.28,8.2,9.57,3.49,2.3,7.43,3.44,11.85,3.44s8.35-1.15,11.84-3.44Z"/><path class="cls-7" d="m360.4,298.6h-14.19l-23-76.71h16.25l14.6,53.58,16.94-53.58h13.36l16.94,53.58,14.73-53.58h16.25l-23.41,76.71h-14.19l-16.94-55.78-17.36,55.78Z"/><path class="cls-7" d="m454.42,294.95c-5.79-3.44-10.28-8.17-13.5-14.19-3.21-6.01-4.82-12.74-4.82-20.18,0-6.98,1.45-13.54,4.34-19.69,2.89-6.15,7.18-11.11,12.88-14.87,5.69-3.76,12.53-5.65,20.52-5.65,6.79,0,13.06,1.47,18.8,4.41s10.35,7.32,13.84,13.15c3.49,5.83,5.23,12.93,5.23,21.28v4.13h-60.19c.28,3.03,1.01,5.78,2.21,8.26,1.83,4.68,4.59,8.4,8.26,11.16,3.67,2.75,7.85,4.13,12.54,4.13s9.04-1.26,12.53-3.79c3.49-2.53,6.01-5.76,7.57-9.71h15.84c-2.57,7.9-6.91,14.32-13.01,19.28-6.11,4.96-13.84,7.44-23.21,7.44-7.44,0-14.05-1.72-19.83-5.17Zm41.6-43.87c-.37-2.84-1.15-5.28-2.34-7.3-1.84-3.49-4.48-6.17-7.92-8.06-3.44-1.88-7.23-2.82-11.36-2.82s-8.13.94-11.43,2.82c-3.3,1.88-5.92,4.57-7.85,8.06-1.1,1.84-1.98,4.27-2.62,7.3h43.52Z"/><path class="cls-7" d="m524.7,298.6v-76.71h15.15v9.78c3.12-4.04,6.56-6.93,10.33-8.68,3.77-1.74,8.13-2.62,13.09-2.62h1.51v14.87h-4.13c-6.15,0-10.93,1.7-14.32,5.1-4.32,4.13-6.47,10.93-6.47,20.38v37.87h-15.15Z"/><path class="cls-7" d="m588.05,294.95c-5.79-3.44-10.28-8.17-13.5-14.19s-4.82-12.74-4.82-20.18c0-6.98,1.45-13.54,4.34-19.69,2.89-6.15,7.18-11.11,12.88-14.87,5.69-3.76,12.53-5.65,20.52-5.65,6.79,0,13.06,1.47,18.8,4.41,5.74,2.94,10.35,7.32,13.84,13.15,3.49,5.83,5.23,12.93,5.23,21.28v4.13h-60.19c.28,3.03,1.01,5.78,2.21,8.26,1.83,4.68,4.59,8.4,8.26,11.16,3.67,2.75,7.85,4.13,12.54,4.13s9.04-1.26,12.53-3.79c3.49-2.53,6.01-5.76,7.57-9.71h15.84c-2.57,7.9-6.91,14.32-13.01,19.28-6.11,4.96-13.84,7.44-23.21,7.44-7.44,0-14.05-1.72-19.83-5.17Zm41.6-43.87c-.37-2.84-1.15-5.28-2.34-7.3-1.84-3.49-4.48-6.17-7.92-8.06-3.44-1.88-7.23-2.82-11.36-2.82s-8.13.94-11.43,2.82c-3.3,1.88-5.92,4.57-7.85,8.06-1.1,1.84-1.98,4.27-2.62,7.3h43.52Z"/><path class="cls-7" d="m671.07,295.09c-5.14-3.35-9.11-8.06-11.91-14.12-2.8-6.06-4.2-12.95-4.2-20.66s1.4-14.74,4.2-20.8c2.8-6.06,6.77-10.76,11.91-14.12,5.14-3.35,11.06-5.03,17.77-5.03,5.05,0,9.37.9,12.95,2.69,3.58,1.79,7.07,4.98,10.47,9.57v-39.11h15.15v105.09h-15.15v-10.88c-3.4,4.59-6.89,7.81-10.47,9.64-3.58,1.84-7.9,2.75-12.95,2.75-6.7,0-12.62-1.68-17.77-5.03Zm31.88-11.57c3.35-2.25,5.97-5.39,7.85-9.43,1.88-4.04,2.82-8.63,2.82-13.77s-.94-9.75-2.82-13.84c-1.89-4.08-4.5-7.25-7.85-9.5-3.35-2.25-7.14-3.38-11.36-3.38-6.52,0-11.73,2.5-15.63,7.51-3.9,5.01-5.85,11.41-5.85,19.21s1.95,14.19,5.85,19.15c3.9,4.96,9.11,7.44,15.63,7.44,4.22,0,8.01-1.12,11.36-3.37Z"/><path class="cls-7" d="m806.45,297.36c-3.58-1.84-7.07-5.05-10.47-9.64v10.88h-15.15v-105.09h15.15v39.11c3.4-4.59,6.89-7.78,10.47-9.57,3.58-1.79,7.9-2.69,12.95-2.69,6.7,0,12.62,1.68,17.77,5.03,5.14,3.35,9.11,8.06,11.91,14.12,2.8,6.06,4.2,12.99,4.2,20.8s-1.4,14.6-4.2,20.66c-2.8,6.06-6.77,10.77-11.91,14.12-5.14,3.35-11.07,5.03-17.77,5.03-5.05,0-9.37-.92-12.95-2.75Zm25.82-17.9c3.9-4.96,5.86-11.34,5.86-19.15s-1.95-14.21-5.86-19.21c-3.9-5-9.11-7.51-15.63-7.51-4.23,0-8.01,1.13-11.36,3.38-3.35,2.25-5.97,5.42-7.85,9.5-1.88,4.09-2.82,8.7-2.82,13.84s.94,9.73,2.82,13.77c1.88,4.04,4.5,7.19,7.85,9.43,3.35,2.25,7.14,3.37,11.36,3.37,6.52,0,11.73-2.48,15.63-7.44Z"/><path class="cls-7" d="m863.6,326.98v-13.22h7.85c3.03,0,5.26-.41,6.68-1.24,1.42-.83,2.73-2.8,3.93-5.92l3.03-8.4-29.06-76.3h16.53l20.52,57.98,18.87-57.98h16.39l-31.95,88.83c-2.21,6.15-4.82,10.4-7.85,12.74-3.03,2.34-7.3,3.51-12.81,3.51h-12.12Z"/></svg>