<?xml version="1.0" standalone="no"?>
<!DOCTYPE svg PUBLIC "-//W3C//DTD SVG 1.1//EN" "http://www.w3.org/Graphics/SVG/1.1/DTD/svg11.dtd">
<svg xmlns="http://www.w3.org/2000/svg" xmlns:xlink="http://www.w3.org/1999/xlink" id="Layer_1" viewBox="0 0 1152.12 840.88" width="1152.1199951171875" height="840.8800048828125"><defs><style>.cls-1{fill:url(#linear-gradient);}.cls-1,.cls-2,.cls-3,.cls-4,.cls-5,.cls-6,.cls-7{stroke-width:0px;}.cls-2{fill:url(#linear-gradient-4);}.cls-3{fill:url(#linear-gradient-2);}.cls-4{fill:url(#linear-gradient-3);}.cls-5{fill:url(#linear-gradient-5);}.cls-6{fill:#343744;}.cls-7{fill:#fff;}</style><linearGradient id="linear-gradient" x1="335.02" y1="581.36" x2="257.97" y2="488.05" gradientUnits="userSpaceOnUse"><stop offset=".2" stop-color="#10a09f"/><stop offset="1" stop-color="#a8ff83"/></linearGradient><linearGradient id="linear-gradient-2" x1="333.53" y1="618.57" x2="391.14" y2="529.15" gradientUnits="userSpaceOnUse"><stop offset=".2" stop-color="#ff4c6d"/><stop offset="1" stop-color="#ffcf55"/></linearGradient><linearGradient id="linear-gradient-3" x1="301.42" y1="625.38" x2="381.31" y2="644.47" gradientUnits="userSpaceOnUse"><stop offset=".2" stop-color="#a8356b"/><stop offset="1" stop-color="#ff5f6d"/></linearGradient><linearGradient id="linear-gradient-4" x1="280.24" y1="602.29" x2="288.72" y2="693.84" gradientUnits="userSpaceOnUse"><stop offset=".2" stop-color="#4f60c5"/><stop offset="1" stop-color="#1aa7ec"/></linearGradient><linearGradient id="linear-gradient-5" x1="298.35" y1="574.6" x2="206.45" y2="611.01" gradientUnits="userSpaceOnUse"><stop offset=".2" stop-color="#843d9d"/><stop offset="1" stop-color="#f55abb"/></linearGradient></defs><path class="cls-7" d="m576.06,826.9c-133.41,0-266.82-4.21-399.3-12.62-73.48-5.03-142.43-70.33-150.59-142.57-17.79-166.75-17.79-335.8,0-502.5C34.33,96.92,103.28,31.63,176.72,26.6c264.99-16.84,533.68-16.83,798.64,0,73.48,5.04,142.43,70.33,150.59,142.57,17.79,166.75,17.79,335.8,0,502.5-8.18,72.29-77.13,137.58-150.56,142.61h-.03c-132.48,8.42-265.89,12.62-399.31,12.62Zm.01-798.96c-133.13,0-266.23,4.2-398.43,12.59C110.53,45.14,47.51,104.76,40.05,170.73c-17.68,165.68-17.68,333.73,0,499.45,7.45,65.93,70.48,125.55,137.62,130.15,264.32,16.79,532.41,16.79,796.77,0h0c67.14-4.6,130.16-64.23,137.63-130.2,17.68-165.67,17.68-333.73,0-499.45-7.45-65.92-70.48-125.55-137.62-130.15-132.15-8.39-265.28-12.59-398.37-12.59Z"/><path class="cls-7" d="m974.92,807.31c-265.91,16.89-531.82,16.89-797.72,0-69.61-4.77-136.21-66.64-144.09-136.38-10.14-95.09-14.51-190.19-13.11-285.29,370.71-2.71,741.41-2.71,1112.12,0,1.41,95.09-2.96,190.19-13.11,285.29-7.89,69.76-74.47,131.61-144.09,136.38Z"/><path class="cls-7" d="m576.06,824.7c-133.37,0-266.73-4.2-399.16-12.62-72.48-4.96-140.49-69.36-148.54-140.62-10.12-94.88-14.54-191.06-13.14-285.89l.07-4.68,4.68-.03c369-2.69,743.19-2.69,1112.19,0l4.68.03.07,4.68c1.4,94.83-3.01,191.01-13.13,285.86-8.07,71.29-76.08,135.68-148.52,140.65h-.02c-132.43,8.41-265.8,12.62-399.17,12.62ZM24.72,390.39c-1.19,92.94,3.23,187.12,13.14,280.03,7.56,66.93,71.52,127.45,139.66,132.12,264.42,16.79,532.63,16.79,797.08,0,68.13-4.68,132.08-65.19,139.66-132.15,9.91-92.88,14.33-187.07,13.14-280-365.88-2.64-736.8-2.64-1102.69,0Z"/><path class="cls-1" d="m253.01,514.74c-4.41-13.58,3.02-28.17,16.6-32.58,13.58-4.41,28.17,3.02,32.58,16.6,5.96,18.34,2.61,91.7,2.61,91.7,0,0-45.64-56.8-51.79-75.72Z"/><path class="cls-3" d="m368.57,528.84c10.47-7.61,25.13-5.29,32.74,5.18,7.61,10.47,5.29,25.13-5.18,32.74-14.14,10.27-78.32,27.93-78.32,27.93,0,0,36.18-55.25,50.77-65.85Z"/><path class="cls-4" d="m376.81,629.4c7.89,5.73,9.64,16.77,3.91,24.66-5.73,7.89-16.77,9.64-24.66,3.91-10.65-7.74-38.25-49.62-38.25-49.62,0,0,48.02,13.06,59.01,21.05Z"/><path class="cls-2" d="m302.78,683.66c-3.42,10.53-14.73,16.29-25.25,12.87-10.53-3.42-16.29-14.73-12.87-25.25,4.62-14.21,40.14-58.69,40.14-58.69,0,0,2.74,56.41-2.02,71.08Z"/><path class="cls-5" d="m222.92,623.22c-11.98,0-21.7-9.71-21.7-21.7,0-11.98,9.71-21.7,21.7-21.7,16.18,0,73.86,21.7,73.86,21.7,0,0-57.16,21.7-73.86,21.7Z"/><path class="cls-6" d="m879.91,560.99c0-9.18,8.99-15.55,18.92-15.55,12.12,0,20.89,9.27,20.98,20.8l25.56-6.39c-2.5-20.65-21.39-35.58-45.98-35.58-26.22,0-45.33,15.36-45.33,36.34,0,43.46,71,34.28,71,62.01,0,10.11-9.74,17.61-23.04,17.61-15.74,0-27.1-11.25-28.95-28.04l-25.44,6.36c4.4,23.87,25.34,42.85,54.39,42.85s48.89-17.42,48.89-40.65c0-44.4-71-33.91-71-59.76Z"/><path class="cls-6" d="m483.35,560.99c0-9.18,8.99-15.55,18.92-15.55,12.12,0,20.89,9.27,20.98,20.8l25.56-6.39c-2.5-20.65-21.39-35.58-45.98-35.58-26.22,0-45.33,15.36-45.33,36.34,0,43.46,71,34.28,71,62.01,0,10.11-9.74,17.61-23.04,17.61-15.74,0-27.1-11.25-28.95-28.04l-25.44,6.36c4.4,23.87,25.34,42.85,54.39,42.85s48.89-17.42,48.89-40.65c0-44.4-71-33.91-71-59.76Z"/><path class="cls-6" d="m633.1,524.27c-38.78,0-65.94,28.29-65.94,68.56s27.16,68.56,65.94,68.56,65.94-28.29,65.94-68.56-27.16-68.56-65.94-68.56Zm0,115.96c-23.79,0-40.09-19.11-40.09-47.39s16.3-47.39,40.09-47.39,40.09,19.11,40.09,47.39-16.3,47.39-40.09,47.39Zm141.77,0c-23.7,0-37.66-17.64-37.66-46.87s14.48-47.92,37.66-47.92c17.42,0,29.8,10.74,33.12,28.82l24.55-6.14c-6.08-26.31-28.36-43.85-57.71-43.85-37.38,0-62.89,28.09-62.89,69.08s25,68.05,62.89,68.05c41.61,0,53.94-27.8,57.55-42.85l-24.92-6.23c-1.35,10.21-7.48,27.92-32.59,27.92Z"/><path class="cls-7" d="m222.33,260.64v-97.97h39.42c9.58,0,17.16,2.37,22.72,7.12,5.56,4.75,8.35,11.88,8.35,21.38s-2.82,16.2-8.47,21.38c-5.65,5.18-13.18,7.77-22.6,7.77h-24.27v40.32h-15.15Zm37.36-53.55c5.82,0,10.29-1.33,13.42-3.98,3.12-2.65,4.69-6.51,4.69-11.56s-1.56-8.64-4.69-11.3c-3.12-2.65-7.6-3.98-13.42-3.98h-22.21v30.82h22.21Z"/><path class="cls-7" d="m314.94,257.3c-5.44-3.17-9.68-7.6-12.71-13.29-3.04-5.69-4.56-12.18-4.56-19.45s1.52-13.44,4.56-19c3.04-5.56,7.27-9.93,12.71-13.1,5.44-3.17,11.62-4.75,18.56-4.75s13.12,1.58,18.55,4.75c5.44,3.17,9.67,7.53,12.71,13.1,3.04,5.57,4.56,11.9,4.56,19s-1.5,13.63-4.5,19.33c-3,5.69-7.21,10.14-12.65,13.35-5.44,3.21-11.66,4.82-18.68,4.82s-13.12-1.58-18.56-4.75Zm29.6-10.79c3.25-2.14,5.8-5.14,7.64-8.99,1.84-3.85,2.76-8.17,2.76-12.97s-.92-8.8-2.76-12.52c-1.84-3.72-4.39-6.65-7.64-8.8-3.25-2.14-6.93-3.21-11.04-3.21s-7.79,1.05-11.04,3.15c-3.25,2.1-5.8,5.01-7.64,8.73-1.84,3.72-2.76,7.94-2.76,12.65s.92,9.23,2.76,13.03c1.84,3.81,4.39,6.79,7.64,8.92,3.25,2.14,6.93,3.21,11.04,3.21s7.79-1.07,11.04-3.21Z"/><path class="cls-7" d="m407.51,260.64h-13.23l-21.44-71.52h15.15l13.61,49.95,15.8-49.95h12.45l15.79,49.95,13.74-49.95h15.15l-21.83,71.52h-13.23l-15.79-52-16.18,52Z"/><path class="cls-7" d="m495.16,257.24c-5.39-3.21-9.59-7.62-12.58-13.23-3-5.61-4.5-11.88-4.5-18.81,0-6.5,1.35-12.63,4.05-18.36,2.69-5.73,6.69-10.36,12-13.87,5.31-3.51,11.68-5.26,19.13-5.26,6.33,0,12.18,1.37,17.53,4.11s9.65,6.83,12.91,12.26c3.25,5.44,4.88,12.05,4.88,19.84v3.85h-56.11c.26,2.82.94,5.39,2.06,7.7,1.71,4.37,4.28,7.83,7.7,10.4,3.42,2.57,7.32,3.85,11.69,3.85s8.43-1.18,11.68-3.53c3.25-2.35,5.6-5.37,7.06-9.05h14.77c-2.4,7.36-6.44,13.35-12.13,17.98s-12.91,6.93-21.64,6.93c-6.93,0-13.1-1.61-18.49-4.82Zm38.78-40.9c-.35-2.65-1.07-4.92-2.18-6.81-1.71-3.25-4.17-5.76-7.38-7.51-3.21-1.75-6.74-2.63-10.59-2.63s-7.58.88-10.66,2.63c-3.08,1.76-5.52,4.26-7.32,7.51-1.03,1.71-1.84,3.98-2.44,6.81h40.58Z"/><path class="cls-7" d="m560.69,260.64v-71.52h14.12v9.12c2.91-3.77,6.12-6.46,9.63-8.09,3.51-1.63,7.58-2.44,12.2-2.44h1.41v13.87h-3.85c-5.74,0-10.19,1.59-13.35,4.75-4.03,3.85-6.04,10.19-6.04,19v35.31h-14.12Z"/><path class="cls-7" d="m619.75,257.24c-5.39-3.21-9.59-7.62-12.58-13.23-3-5.61-4.5-11.88-4.5-18.81,0-6.5,1.35-12.63,4.05-18.36,2.69-5.73,6.69-10.36,12-13.87,5.31-3.51,11.68-5.26,19.13-5.26,6.33,0,12.18,1.37,17.53,4.11s9.65,6.83,12.91,12.26c3.25,5.44,4.88,12.05,4.88,19.84v3.85h-56.11c.26,2.82.94,5.39,2.06,7.7,1.71,4.37,4.28,7.83,7.7,10.4,3.42,2.57,7.32,3.85,11.69,3.85s8.43-1.18,11.68-3.53c3.25-2.35,5.6-5.37,7.06-9.05h14.77c-2.4,7.36-6.44,13.35-12.13,17.98s-12.91,6.93-21.64,6.93c-6.93,0-13.1-1.61-18.49-4.82Zm38.78-40.9c-.35-2.65-1.07-4.92-2.18-6.81-1.71-3.25-4.17-5.76-7.38-7.51-3.21-1.75-6.74-2.63-10.59-2.63s-7.58.88-10.66,2.63c-3.08,1.76-5.52,4.26-7.32,7.51-1.03,1.71-1.84,3.98-2.44,6.81h40.58Z"/><path class="cls-7" d="m697.15,257.36c-4.79-3.12-8.5-7.51-11.11-13.16-2.61-5.65-3.92-12.07-3.92-19.26s1.3-13.74,3.92-19.39c2.61-5.65,6.31-10.04,11.11-13.16,4.79-3.12,10.31-4.69,16.56-4.69,4.71,0,8.73.83,12.07,2.5s6.59,4.64,9.76,8.92v-36.47h14.12v97.97h-14.12v-10.14c-3.17,4.28-6.42,7.28-9.76,8.99-3.34,1.71-7.37,2.57-12.07,2.57-6.25,0-11.77-1.56-16.56-4.69Zm29.72-10.79c3.12-2.1,5.56-5.03,7.32-8.8,1.75-3.77,2.63-8.05,2.63-12.84s-.88-9.09-2.63-12.9c-1.76-3.81-4.2-6.76-7.32-8.86-3.12-2.1-6.66-3.15-10.59-3.15-6.08,0-10.93,2.33-14.58,7-3.64,4.67-5.46,10.64-5.46,17.91s1.82,13.23,5.46,17.85c3.64,4.62,8.5,6.93,14.58,6.93,3.94,0,7.47-1.05,10.59-3.15Z"/><path class="cls-7" d="m823.37,259.48c-3.34-1.71-6.59-4.71-9.76-8.99v10.14h-14.12v-97.97h14.12v36.47c3.17-4.28,6.42-7.25,9.76-8.92s7.36-2.5,12.07-2.5c6.25,0,11.77,1.56,16.56,4.69,4.79,3.13,8.5,7.51,11.11,13.16,2.61,5.65,3.92,12.11,3.92,19.39s-1.31,13.61-3.92,19.26c-2.61,5.65-6.31,10.04-11.11,13.16-4.79,3.12-10.32,4.69-16.56,4.69-4.71,0-8.73-.86-12.07-2.57Zm24.08-16.69c3.64-4.62,5.46-10.57,5.46-17.85s-1.82-13.25-5.46-17.91c-3.64-4.66-8.5-7-14.57-7-3.94,0-7.47,1.05-10.6,3.15-3.12,2.1-5.56,5.05-7.32,8.86-1.75,3.81-2.63,8.11-2.63,12.9s.88,9.08,2.63,12.84c1.75,3.77,4.19,6.7,7.32,8.8,3.12,2.1,6.66,3.15,10.6,3.15,6.08,0,10.93-2.31,14.57-6.93Z"/><path class="cls-7" d="m876.64,287.09v-12.33h7.32c2.83,0,4.9-.39,6.23-1.16,1.33-.77,2.54-2.61,3.66-5.52l2.82-7.83-27.09-71.14h15.41l19.13,54.06,17.59-54.06h15.28l-29.79,82.82c-2.06,5.73-4.5,9.69-7.32,11.88-2.82,2.18-6.8,3.27-11.94,3.27h-11.3Z"/></svg>